<mxfile host="app.diagrams.net" agent="Mozilla/5.0 (X11; Linux x86_64) AppleWebKit/537.36 (KHTML, like Gecko) Chrome/135.0.0.0 Safari/537.36" version="26.2.9">
  <diagram name="Page-1" id="vHG7mOKKZMKuYX-PGG-n">
    <mxGraphModel dx="948" dy="615" grid="1" gridSize="10" guides="1" tooltips="1" connect="1" arrows="1" fold="1" page="1" pageScale="1" pageWidth="1100" pageHeight="850" math="0" shadow="0">
      <root>
        <mxCell id="0" />
        <mxCell id="1" parent="0" />
        <mxCell id="097z2trLRk12nKmmqsXY-2" value="DRIVER" style="rounded=0;whiteSpace=wrap;html=1;fillColor=none;" parent="1" vertex="1">
          <mxGeometry x="280" y="345" width="110" height="50" as="geometry" />
        </mxCell>
        <mxCell id="097z2trLRk12nKmmqsXY-5" value="&lt;div&gt;drives&lt;/div&gt;" style="shape=rhombus;perimeter=rhombusPerimeter;whiteSpace=wrap;html=1;align=center;fillColor=none;" parent="1" vertex="1">
          <mxGeometry x="470" y="340" width="120" height="60" as="geometry" />
        </mxCell>
        <mxCell id="097z2trLRk12nKmmqsXY-6" value="" style="endArrow=none;html=1;rounded=0;entryX=0;entryY=0.5;entryDx=0;entryDy=0;exitX=1;exitY=0.5;exitDx=0;exitDy=0;" parent="1" source="097z2trLRk12nKmmqsXY-2" target="097z2trLRk12nKmmqsXY-5" edge="1">
          <mxGeometry width="50" height="50" relative="1" as="geometry">
            <mxPoint x="510" y="450" as="sourcePoint" />
            <mxPoint x="560" y="400" as="targetPoint" />
          </mxGeometry>
        </mxCell>
        <mxCell id="097z2trLRk12nKmmqsXY-7" value="" style="endArrow=none;html=1;rounded=0;exitX=1;exitY=0.5;exitDx=0;exitDy=0;entryX=0.01;entryY=0.583;entryDx=0;entryDy=0;entryPerimeter=0;" parent="1" target="097z2trLRk12nKmmqsXY-31" edge="1">
          <mxGeometry width="50" height="50" relative="1" as="geometry">
            <mxPoint x="590" y="369.5" as="sourcePoint" />
            <mxPoint x="670" y="370" as="targetPoint" />
          </mxGeometry>
        </mxCell>
        <mxCell id="097z2trLRk12nKmmqsXY-9" value="" style="ellipse;whiteSpace=wrap;html=1;aspect=fixed;" parent="1" vertex="1">
          <mxGeometry x="220" y="360" width="10" height="10" as="geometry" />
        </mxCell>
        <mxCell id="097z2trLRk12nKmmqsXY-10" value="" style="endArrow=none;html=1;rounded=0;exitX=0.985;exitY=0.713;exitDx=0;exitDy=0;exitPerimeter=0;entryX=-0.006;entryY=0.452;entryDx=0;entryDy=0;entryPerimeter=0;" parent="1" source="097z2trLRk12nKmmqsXY-9" target="097z2trLRk12nKmmqsXY-2" edge="1">
          <mxGeometry width="50" height="50" relative="1" as="geometry">
            <mxPoint x="230" y="380" as="sourcePoint" />
            <mxPoint x="279.2299999999999" y="370.20000000000005" as="targetPoint" />
          </mxGeometry>
        </mxCell>
        <mxCell id="097z2trLRk12nKmmqsXY-11" value="name" style="text;html=1;align=center;verticalAlign=middle;resizable=0;points=[];autosize=1;strokeColor=none;fillColor=none;" parent="1" vertex="1">
          <mxGeometry x="170" y="350" width="50" height="30" as="geometry" />
        </mxCell>
        <mxCell id="097z2trLRk12nKmmqsXY-13" value="" style="endArrow=none;html=1;rounded=0;exitX=1;exitY=0.5;exitDx=0;exitDy=0;entryX=0;entryY=0.5;entryDx=0;entryDy=0;" parent="1" edge="1">
          <mxGeometry width="50" height="50" relative="1" as="geometry">
            <mxPoint x="230" y="385" as="sourcePoint" />
            <mxPoint x="280" y="385" as="targetPoint" />
          </mxGeometry>
        </mxCell>
        <mxCell id="097z2trLRk12nKmmqsXY-14" value="phone_number" style="text;html=1;align=center;verticalAlign=middle;resizable=0;points=[];autosize=1;strokeColor=none;fillColor=none;" parent="1" vertex="1">
          <mxGeometry x="120" y="370" width="100" height="30" as="geometry" />
        </mxCell>
        <mxCell id="097z2trLRk12nKmmqsXY-18" value="" style="ellipse;whiteSpace=wrap;html=1;aspect=fixed;" parent="1" vertex="1">
          <mxGeometry x="820" y="365.5" width="10" height="10" as="geometry" />
        </mxCell>
        <mxCell id="097z2trLRk12nKmmqsXY-22" value="" style="endArrow=none;html=1;rounded=0;exitX=1;exitY=0.5;exitDx=0;exitDy=0;entryX=0;entryY=0.5;entryDx=0;entryDy=0;" parent="1" source="097z2trLRk12nKmmqsXY-31" target="097z2trLRk12nKmmqsXY-18" edge="1">
          <mxGeometry width="50" height="50" relative="1" as="geometry">
            <mxPoint x="780.55" y="369.25" as="sourcePoint" />
            <mxPoint x="820" y="375.5" as="targetPoint" />
          </mxGeometry>
        </mxCell>
        <mxCell id="097z2trLRk12nKmmqsXY-29" value="" style="endArrow=none;html=1;rounded=0;exitX=1;exitY=0.75;exitDx=0;exitDy=0;entryX=0;entryY=0.5;entryDx=0;entryDy=0;" parent="1" source="097z2trLRk12nKmmqsXY-31" target="097z2trLRk12nKmmqsXY-33" edge="1">
          <mxGeometry width="50" height="50" relative="1" as="geometry">
            <mxPoint x="779.9999999999999" y="389.07" as="sourcePoint" />
            <mxPoint x="820.15" y="391.94" as="targetPoint" />
          </mxGeometry>
        </mxCell>
        <mxCell id="097z2trLRk12nKmmqsXY-30" value="" style="endArrow=none;html=1;rounded=0;exitX=0.998;exitY=0.32;exitDx=0;exitDy=0;exitPerimeter=0;entryX=0;entryY=0.5;entryDx=0;entryDy=0;" parent="1" source="097z2trLRk12nKmmqsXY-31" target="097z2trLRk12nKmmqsXY-32" edge="1">
          <mxGeometry width="50" height="50" relative="1" as="geometry">
            <mxPoint x="780.0000000000001" y="355.5" as="sourcePoint" />
            <mxPoint x="820" y="355.5" as="targetPoint" />
          </mxGeometry>
        </mxCell>
        <mxCell id="097z2trLRk12nKmmqsXY-31" value="VEHICLE" style="rounded=0;whiteSpace=wrap;html=1;fillColor=none;" parent="1" vertex="1">
          <mxGeometry x="660" y="341" width="110" height="50" as="geometry" />
        </mxCell>
        <mxCell id="097z2trLRk12nKmmqsXY-32" value="" style="ellipse;whiteSpace=wrap;html=1;aspect=fixed;" parent="1" vertex="1">
          <mxGeometry x="820" y="345.5" width="10" height="10" as="geometry" />
        </mxCell>
        <mxCell id="097z2trLRk12nKmmqsXY-33" value="" style="ellipse;whiteSpace=wrap;html=1;aspect=fixed;fillColor=light-dark(#FFFFFF,#FEF6FF);" parent="1" vertex="1">
          <mxGeometry x="820" y="385.5" width="10" height="10" as="geometry" />
        </mxCell>
        <mxCell id="097z2trLRk12nKmmqsXY-35" value="brand" style="text;html=1;align=left;verticalAlign=middle;resizable=0;points=[];autosize=1;strokeColor=none;fillColor=none;" parent="1" vertex="1">
          <mxGeometry x="840" y="333.5" width="50" height="30" as="geometry" />
        </mxCell>
        <mxCell id="OTOVHvQYVz1heglmI_JG-1" value="model" style="text;html=1;align=left;verticalAlign=middle;resizable=0;points=[];autosize=1;strokeColor=none;fillColor=none;" parent="1" vertex="1">
          <mxGeometry x="840" y="355.5" width="60" height="30" as="geometry" />
        </mxCell>
        <mxCell id="OTOVHvQYVz1heglmI_JG-2" value="plate_number" style="text;html=1;align=left;verticalAlign=middle;resizable=0;points=[];autosize=1;strokeColor=none;fillColor=none;" parent="1" vertex="1">
          <mxGeometry x="840" y="375.5" width="100" height="30" as="geometry" />
        </mxCell>
        <mxCell id="OTOVHvQYVz1heglmI_JG-6" value="" style="endArrow=none;html=1;rounded=0;exitX=0.998;exitY=0.045;exitDx=0;exitDy=0;exitPerimeter=0;entryX=-0.021;entryY=0.552;entryDx=0;entryDy=0;entryPerimeter=0;" parent="1" source="097z2trLRk12nKmmqsXY-31" target="OTOVHvQYVz1heglmI_JG-8" edge="1">
          <mxGeometry width="50" height="50" relative="1" as="geometry">
            <mxPoint x="770.0000000000001" y="354.5" as="sourcePoint" />
            <mxPoint x="820" y="324.5" as="targetPoint" />
            <Array as="points" />
          </mxGeometry>
        </mxCell>
        <mxCell id="OTOVHvQYVz1heglmI_JG-7" value="" style="ellipse;whiteSpace=wrap;html=1;aspect=fixed;fillColor=none;" parent="1" vertex="1">
          <mxGeometry x="220" y="380" width="10" height="10" as="geometry" />
        </mxCell>
        <mxCell id="OTOVHvQYVz1heglmI_JG-8" value="" style="ellipse;whiteSpace=wrap;html=1;aspect=fixed;fillColor=light-dark(#FFFFFF,#FEF8FF);" parent="1" vertex="1">
          <mxGeometry x="820" y="324.5" width="10" height="10" as="geometry" />
        </mxCell>
        <mxCell id="OTOVHvQYVz1heglmI_JG-9" value="id" style="text;html=1;align=center;verticalAlign=middle;resizable=0;points=[];autosize=1;strokeColor=none;fillColor=none;" parent="1" vertex="1">
          <mxGeometry x="830" y="314.5" width="30" height="30" as="geometry" />
        </mxCell>
        <mxCell id="OTOVHvQYVz1heglmI_JG-10" value="(0, 1)" style="text;html=1;align=center;verticalAlign=middle;resizable=0;points=[];autosize=1;strokeColor=none;fillColor=none;" parent="1" vertex="1">
          <mxGeometry x="390" y="345" width="50" height="30" as="geometry" />
        </mxCell>
        <mxCell id="OTOVHvQYVz1heglmI_JG-11" value="(0, 1)" style="text;html=1;align=center;verticalAlign=middle;resizable=0;points=[];autosize=1;strokeColor=none;fillColor=none;" parent="1" vertex="1">
          <mxGeometry x="610" y="345" width="50" height="30" as="geometry" />
        </mxCell>
        <mxCell id="OTOVHvQYVz1heglmI_JG-12" value="" style="endArrow=none;html=1;rounded=0;exitX=0.989;exitY=0.604;exitDx=0;exitDy=0;entryX=-0.001;entryY=0.071;entryDx=0;entryDy=0;exitPerimeter=0;entryPerimeter=0;" parent="1" source="OTOVHvQYVz1heglmI_JG-13" target="097z2trLRk12nKmmqsXY-2" edge="1">
          <mxGeometry width="50" height="50" relative="1" as="geometry">
            <mxPoint x="230" y="341" as="sourcePoint" />
            <mxPoint x="280" y="360" as="targetPoint" />
          </mxGeometry>
        </mxCell>
        <mxCell id="OTOVHvQYVz1heglmI_JG-13" value="" style="ellipse;whiteSpace=wrap;html=1;aspect=fixed;fillColor=light-dark(#FFFFFF,#FEF8FF);" parent="1" vertex="1">
          <mxGeometry x="220" y="341" width="10" height="10" as="geometry" />
        </mxCell>
        <mxCell id="OTOVHvQYVz1heglmI_JG-14" value="id" style="text;html=1;align=center;verticalAlign=middle;resizable=0;points=[];autosize=1;strokeColor=none;fillColor=none;" parent="1" vertex="1">
          <mxGeometry x="190" y="330" width="30" height="30" as="geometry" />
        </mxCell>
        <mxCell id="OTOVHvQYVz1heglmI_JG-15" value="&lt;div&gt;park&lt;/div&gt;" style="shape=rhombus;perimeter=rhombusPerimeter;whiteSpace=wrap;html=1;align=center;fillColor=none;" parent="1" vertex="1">
          <mxGeometry x="655" y="425" width="120" height="60" as="geometry" />
        </mxCell>
        <mxCell id="OTOVHvQYVz1heglmI_JG-16" value="PARKING" style="rounded=0;whiteSpace=wrap;html=1;fillColor=none;" parent="1" vertex="1">
          <mxGeometry x="660" y="520" width="110" height="50" as="geometry" />
        </mxCell>
        <mxCell id="OTOVHvQYVz1heglmI_JG-17" value="" style="endArrow=none;html=1;rounded=0;exitX=0.5;exitY=0;exitDx=0;exitDy=0;entryX=0.5;entryY=1;entryDx=0;entryDy=0;" parent="1" source="OTOVHvQYVz1heglmI_JG-15" target="097z2trLRk12nKmmqsXY-31" edge="1">
          <mxGeometry width="50" height="50" relative="1" as="geometry">
            <mxPoint x="640" y="404.43" as="sourcePoint" />
            <mxPoint x="711" y="404.93" as="targetPoint" />
            <Array as="points" />
          </mxGeometry>
        </mxCell>
        <mxCell id="OTOVHvQYVz1heglmI_JG-18" value="" style="endArrow=none;html=1;rounded=0;exitX=0.5;exitY=0;exitDx=0;exitDy=0;entryX=0.5;entryY=1;entryDx=0;entryDy=0;" parent="1" edge="1">
          <mxGeometry width="50" height="50" relative="1" as="geometry">
            <mxPoint x="714.83" y="519" as="sourcePoint" />
            <mxPoint x="714.83" y="485" as="targetPoint" />
            <Array as="points" />
          </mxGeometry>
        </mxCell>
        <mxCell id="OTOVHvQYVz1heglmI_JG-19" value="(0, 1)" style="text;html=1;align=center;verticalAlign=middle;resizable=0;points=[];autosize=1;strokeColor=none;fillColor=none;" parent="1" vertex="1">
          <mxGeometry x="710" y="390" width="50" height="30" as="geometry" />
        </mxCell>
        <mxCell id="OTOVHvQYVz1heglmI_JG-20" value="(0, n)" style="text;html=1;align=center;verticalAlign=middle;resizable=0;points=[];autosize=1;strokeColor=none;fillColor=none;" parent="1" vertex="1">
          <mxGeometry x="710" y="490" width="50" height="30" as="geometry" />
        </mxCell>
        <mxCell id="OTOVHvQYVz1heglmI_JG-25" value="" style="endArrow=none;html=1;rounded=0;exitX=1;exitY=0.75;exitDx=0;exitDy=0;" parent="1" edge="1">
          <mxGeometry width="50" height="50" relative="1" as="geometry">
            <mxPoint x="770" y="391" as="sourcePoint" />
            <mxPoint x="820" y="410" as="targetPoint" />
            <Array as="points">
              <mxPoint x="790" y="410" />
            </Array>
          </mxGeometry>
        </mxCell>
        <mxCell id="OTOVHvQYVz1heglmI_JG-26" value="" style="ellipse;whiteSpace=wrap;html=1;aspect=fixed;" parent="1" vertex="1">
          <mxGeometry x="820" y="405.5" width="10" height="10" as="geometry" />
        </mxCell>
        <mxCell id="OTOVHvQYVz1heglmI_JG-27" value="image" style="text;html=1;align=center;verticalAlign=middle;resizable=0;points=[];autosize=1;strokeColor=none;fillColor=none;" parent="1" vertex="1">
          <mxGeometry x="830" y="395.5" width="60" height="30" as="geometry" />
        </mxCell>
        <mxCell id="OTOVHvQYVz1heglmI_JG-28" value="(0, n)" style="text;html=1;align=center;verticalAlign=middle;resizable=0;points=[];autosize=1;strokeColor=none;fillColor=none;" parent="1" vertex="1">
          <mxGeometry x="775" y="408" width="50" height="30" as="geometry" />
        </mxCell>
        <mxCell id="OTOVHvQYVz1heglmI_JG-32" value="" style="endArrow=none;html=1;rounded=0;exitX=-0.011;exitY=0.213;exitDx=0;exitDy=0;exitPerimeter=0;entryX=0.989;entryY=0.627;entryDx=0;entryDy=0;entryPerimeter=0;" parent="1" source="OTOVHvQYVz1heglmI_JG-16" target="OTOVHvQYVz1heglmI_JG-33" edge="1">
          <mxGeometry width="50" height="50" relative="1" as="geometry">
            <mxPoint x="574.8000000000002" y="450.25" as="sourcePoint" />
            <mxPoint x="525" y="500" as="targetPoint" />
            <Array as="points" />
          </mxGeometry>
        </mxCell>
        <mxCell id="OTOVHvQYVz1heglmI_JG-33" value="" style="ellipse;whiteSpace=wrap;html=1;aspect=fixed;fillColor=light-dark(#FFFFFF,#FEF8FF);" parent="1" vertex="1">
          <mxGeometry x="590" y="520" width="10" height="10" as="geometry" />
        </mxCell>
        <mxCell id="OTOVHvQYVz1heglmI_JG-34" value="id" style="text;html=1;align=center;verticalAlign=middle;resizable=0;points=[];autosize=1;strokeColor=none;fillColor=none;" parent="1" vertex="1">
          <mxGeometry x="560" y="510" width="30" height="30" as="geometry" />
        </mxCell>
        <mxCell id="OTOVHvQYVz1heglmI_JG-35" value="address" style="ellipse;whiteSpace=wrap;html=1;fillColor=none;" parent="1" vertex="1">
          <mxGeometry x="530" y="550" width="80" height="45" as="geometry" />
        </mxCell>
        <mxCell id="OTOVHvQYVz1heglmI_JG-37" value="" style="ellipse;whiteSpace=wrap;html=1;aspect=fixed;" parent="1" vertex="1">
          <mxGeometry x="470" y="560" width="10" height="10" as="geometry" />
        </mxCell>
        <mxCell id="OTOVHvQYVz1heglmI_JG-38" value="" style="endArrow=none;html=1;rounded=0;exitX=0.985;exitY=0.713;exitDx=0;exitDy=0;exitPerimeter=0;entryX=0;entryY=0.5;entryDx=0;entryDy=0;" parent="1" source="OTOVHvQYVz1heglmI_JG-37" target="OTOVHvQYVz1heglmI_JG-35" edge="1">
          <mxGeometry width="50" height="50" relative="1" as="geometry">
            <mxPoint x="480" y="580" as="sourcePoint" />
            <mxPoint x="529" y="568" as="targetPoint" />
          </mxGeometry>
        </mxCell>
        <mxCell id="OTOVHvQYVz1heglmI_JG-39" value="street" style="text;html=1;align=center;verticalAlign=middle;resizable=0;points=[];autosize=1;strokeColor=none;fillColor=none;" parent="1" vertex="1">
          <mxGeometry x="420" y="550" width="50" height="30" as="geometry" />
        </mxCell>
        <mxCell id="OTOVHvQYVz1heglmI_JG-40" value="" style="endArrow=none;html=1;rounded=0;exitX=1;exitY=0.5;exitDx=0;exitDy=0;entryX=0.048;entryY=0.737;entryDx=0;entryDy=0;entryPerimeter=0;" parent="1" target="OTOVHvQYVz1heglmI_JG-35" edge="1">
          <mxGeometry width="50" height="50" relative="1" as="geometry">
            <mxPoint x="480" y="585" as="sourcePoint" />
            <mxPoint x="530" y="585" as="targetPoint" />
          </mxGeometry>
        </mxCell>
        <mxCell id="OTOVHvQYVz1heglmI_JG-41" value="number" style="text;html=1;align=center;verticalAlign=middle;resizable=0;points=[];autosize=1;strokeColor=none;fillColor=none;" parent="1" vertex="1">
          <mxGeometry x="410" y="570" width="60" height="30" as="geometry" />
        </mxCell>
        <mxCell id="OTOVHvQYVz1heglmI_JG-42" value="" style="ellipse;whiteSpace=wrap;html=1;aspect=fixed;fillColor=none;" parent="1" vertex="1">
          <mxGeometry x="470" y="580" width="10" height="10" as="geometry" />
        </mxCell>
        <mxCell id="OTOVHvQYVz1heglmI_JG-43" value="" style="endArrow=none;html=1;rounded=0;exitX=0.989;exitY=0.604;exitDx=0;exitDy=0;entryX=0.062;entryY=0.236;entryDx=0;entryDy=0;exitPerimeter=0;entryPerimeter=0;" parent="1" source="OTOVHvQYVz1heglmI_JG-44" target="OTOVHvQYVz1heglmI_JG-35" edge="1">
          <mxGeometry width="50" height="50" relative="1" as="geometry">
            <mxPoint x="480" y="541" as="sourcePoint" />
            <mxPoint x="530" y="549" as="targetPoint" />
          </mxGeometry>
        </mxCell>
        <mxCell id="OTOVHvQYVz1heglmI_JG-44" value="" style="ellipse;whiteSpace=wrap;html=1;aspect=fixed;fillColor=default;" parent="1" vertex="1">
          <mxGeometry x="470" y="541" width="10" height="10" as="geometry" />
        </mxCell>
        <mxCell id="OTOVHvQYVz1heglmI_JG-45" value="city" style="text;html=1;align=center;verticalAlign=middle;resizable=0;points=[];autosize=1;strokeColor=none;fillColor=none;" parent="1" vertex="1">
          <mxGeometry x="430" y="530" width="40" height="30" as="geometry" />
        </mxCell>
        <mxCell id="OTOVHvQYVz1heglmI_JG-46" value="" style="endArrow=none;html=1;rounded=0;exitX=1;exitY=0.5;exitDx=0;exitDy=0;entryX=0;entryY=0.5;entryDx=0;entryDy=0;" parent="1" source="OTOVHvQYVz1heglmI_JG-35" edge="1">
          <mxGeometry width="50" height="50" relative="1" as="geometry">
            <mxPoint x="610" y="564.89" as="sourcePoint" />
            <mxPoint x="660" y="564.89" as="targetPoint" />
          </mxGeometry>
        </mxCell>
        <mxCell id="OTOVHvQYVz1heglmI_JG-48" value="" style="endArrow=none;html=1;rounded=0;entryX=0.708;entryY=0.208;entryDx=0;entryDy=0;entryPerimeter=0;" parent="1" target="097z2trLRk12nKmmqsXY-5" edge="1">
          <mxGeometry width="50" height="50" relative="1" as="geometry">
            <mxPoint x="554.9" y="324.5" as="sourcePoint" />
            <mxPoint x="554.8999999999997" y="354.5000000000001" as="targetPoint" />
          </mxGeometry>
        </mxCell>
        <mxCell id="OTOVHvQYVz1heglmI_JG-49" value="" style="ellipse;whiteSpace=wrap;html=1;aspect=fixed;" parent="1" vertex="1">
          <mxGeometry x="550" y="314.5" width="10" height="10" as="geometry" />
        </mxCell>
        <mxCell id="OTOVHvQYVz1heglmI_JG-51" value="end_date" style="text;html=1;align=center;verticalAlign=middle;resizable=0;points=[];autosize=1;strokeColor=none;fillColor=none;" parent="1" vertex="1">
          <mxGeometry x="555" y="304.5" width="70" height="30" as="geometry" />
        </mxCell>
        <mxCell id="OTOVHvQYVz1heglmI_JG-52" value="" style="endArrow=none;html=1;rounded=0;entryX=0.708;entryY=0.208;entryDx=0;entryDy=0;entryPerimeter=0;exitX=0.5;exitY=1;exitDx=0;exitDy=0;" parent="1" source="OTOVHvQYVz1heglmI_JG-53" edge="1">
          <mxGeometry width="50" height="50" relative="1" as="geometry">
            <mxPoint x="539.9" y="317.5" as="sourcePoint" />
            <mxPoint x="540" y="345" as="targetPoint" />
          </mxGeometry>
        </mxCell>
        <mxCell id="OTOVHvQYVz1heglmI_JG-53" value="" style="ellipse;whiteSpace=wrap;html=1;aspect=fixed;" parent="1" vertex="1">
          <mxGeometry x="535" y="287.5" width="10" height="10" as="geometry" />
        </mxCell>
        <mxCell id="OTOVHvQYVz1heglmI_JG-54" value="start_date" style="text;html=1;align=center;verticalAlign=middle;resizable=0;points=[];autosize=1;strokeColor=none;fillColor=none;" parent="1" vertex="1">
          <mxGeometry x="535" y="277.5" width="80" height="30" as="geometry" />
        </mxCell>
      </root>
    </mxGraphModel>
  </diagram>
</mxfile>
